<?xml version="1.0" standalone="no"?>
<!DOCTYPE svg PUBLIC "-//W3C//DTD SVG 20010904//EN"
 "http://www.w3.org/TR/2001/REC-SVG-20010904/DTD/svg10.dtd">
<svg version="1.0" xmlns="http://www.w3.org/2000/svg"
 width="512.000000pt" height="512.000000pt" viewBox="0 0 512.000000 512.000000"
 preserveAspectRatio="xMidYMid meet">
<metadata>
Created by potrace 1.14, written by Peter Selinger 2001-2017
</metadata>
<g transform="translate(0.000000,512.000000) scale(0.100000,-0.100000)"
fill="#000000" stroke="none">
<path d="M1410 4277 c-52 -18 -108 -41 -125 -49 -40 -21 -152 -104 -195 -145
-19 -18 -38 -33 -41 -33 -9 0 -101 -154 -126 -211 -32 -71 -36 -118 -19 -192
13 -54 27 -82 77 -147 71 -92 155 -169 208 -189 20 -7 83 -26 141 -42 93 -24
118 -27 215 -23 187 7 288 26 455 87 180 65 242 96 332 167 l88 70 0 -78 c0
-96 27 -157 102 -232 120 -118 292 -142 442 -60 81 44 160 161 232 344 20 50
37 92 38 94 5 4 91 -129 115 -175 11 -23 21 -51 21 -61 0 -11 -41 -84 -91
-163 -90 -143 -231 -418 -307 -599 -68 -163 -162 -420 -167 -458 -9 -71 -17
-116 -25 -138 -5 -12 -12 -41 -15 -65 -4 -24 -8 -46 -10 -49 -13 -20 -38 -212
-39 -295 -3 -193 31 -322 147 -550 69 -136 91 -170 147 -226 114 -115 248
-170 400 -164 110 4 245 49 290 98 32 33 154 205 195 273 63 104 130 363 150
574 19 215 24 428 11 535 -4 33 -19 105 -33 160 -13 55 -33 137 -44 182 -10
45 -32 117 -48 160 -29 79 -180 398 -271 574 -65 126 -67 142 -28 191 45 57
128 134 216 200 57 43 96 63 161 83 189 59 235 87 226 135 -6 32 -49 70 -79
70 -46 0 -182 -41 -260 -79 -104 -50 -200 -121 -302 -221 -45 -44 -86 -80 -92
-80 -14 0 -110 163 -225 380 -27 52 -61 110 -74 127 -65 88 -220 121 -358 76
-86 -27 -121 -50 -197 -127 -40 -40 -88 -81 -106 -90 -17 -9 -44 -36 -59 -59
-46 -70 -169 -178 -298 -263 -215 -139 -427 -202 -670 -199 -165 3 -282 42
-350 116 -34 38 -95 155 -95 182 0 7 75 36 168 66 189 61 235 82 313 142 119
92 201 204 201 274 0 72 -75 124 -187 132 -50 3 -76 -2 -155 -30z m150 -126
c0 -23 -91 -112 -165 -163 -54 -36 -180 -89 -244 -103 l-34 -7 34 47 c69 97
178 171 319 219 91 31 90 31 90 7z m1454 -156 c25 -25 32 -44 46 -118 23 -125
-6 -271 -85 -427 -31 -61 -79 -116 -117 -136 -66 -34 -151 -19 -210 36 -33 31
-58 122 -54 197 9 158 136 369 266 441 46 25 132 29 154 7z m508 -842 c163
-289 275 -581 337 -878 48 -229 48 -571 1 -800 -6 -27 -12 -59 -14 -70 -2 -11
-19 -67 -36 -125 -95 -308 -233 -453 -425 -447 -126 5 -214 61 -298 192 -133
208 -197 403 -197 600 -1 104 3 141 32 285 46 239 109 434 238 731 114 263
285 587 311 589 4 0 27 -35 51 -77z"/>
</g>
</svg>
